<?xml version="1.0" encoding="UTF-8" standalone="no"?>
<svg
   xmlns:dc="http://purl.org/dc/elements/1.1/"
   xmlns:cc="http://creativecommons.org/ns#"
   xmlns:rdf="http://www.w3.org/1999/02/22-rdf-syntax-ns#"
   xmlns:svg="http://www.w3.org/2000/svg"
   xmlns="http://www.w3.org/2000/svg"
   xmlns:xlink="http://www.w3.org/1999/xlink"
   xmlns:sodipodi="http://sodipodi.sourceforge.net/DTD/sodipodi-0.dtd"
   xmlns:inkscape="http://www.inkscape.org/namespaces/inkscape"
   version="1.1"
   width="144"
   height="144"
   viewBox="0 0 128 128"
   id="svg3348"
   sodipodi:docname="ic_action_settings.svg"
   inkscape:version="0.92.5 (2060ec1f9f, 2020-04-08)">
  <metadata
     id="metadata3352">
    <rdf:RDF>
      <cc:Work
         rdf:about="">
        <dc:format>image/svg+xml</dc:format>
        <dc:type
           rdf:resource="http://purl.org/dc/dcmitype/StillImage" />
      </cc:Work>
    </rdf:RDF>
  </metadata>
  <sodipodi:namedview
     pagecolor="#ffffff"
     bordercolor="#666666"
     borderopacity="1"
     objecttolerance="10"
     gridtolerance="10"
     guidetolerance="10"
     inkscape:pageopacity="0"
     inkscape:pageshadow="2"
     inkscape:window-width="1856"
     inkscape:window-height="1019"
     id="namedview3350"
     showgrid="false"
     inkscape:zoom="0.82692633"
     inkscape:cx="52.492974"
     inkscape:cy="72"
     inkscape:window-x="64"
     inkscape:window-y="24"
     inkscape:window-maximized="1"
     inkscape:current-layer="svg3348" />
  <defs
     id="defs5708">
    <linearGradient
       inkscape:collect="always"
       id="linearGradient9451">
      <stop
         style="stop-color:#000000;stop-opacity:1;"
         offset="0"
         id="stop9447" />
      <stop
         style="stop-color:#000000;stop-opacity:0;"
         offset="1"
         id="stop9449" />
    </linearGradient>
    <linearGradient
       inkscape:collect="always"
       xlink:href="#linearGradient9451"
       id="linearGradient9453"
       x1="35.206409"
       y1="78.800209"
       x2="112.1703"
       y2="13.866734"
       gradientUnits="userSpaceOnUse" />
  </defs>
  <rect
     style="opacity:1;fill:#fafafa;fill-opacity:0.19607843;fill-rule:nonzero;stroke:none;stroke-width:0.8888889;stroke-linecap:round;stroke-miterlimit:4;stroke-dasharray:none;stroke-dashoffset:0;stroke-opacity:1"
     id="rect2042"
     width="106.66666"
     height="106.66666"
     x="10.666672"
     y="10.666672" />
  <g
     id="g9979"
     transform="matrix(1.2126058,0,0,1.2126058,-13.933783,-13.279758)"
     style="fill-opacity:1;fill:url(#linearGradient9453);stroke-width:1.46608055;stroke-miterlimit:4;stroke-dasharray:none;stroke:#000000;stroke-opacity:1">
    <path
       id="path9895"
       d="m 64.270653,19.747904 -8.027344,0.160156 -2.728516,12.361328 -5.617187,3.048828 -5.449219,3.339844 -12.068359,-3.816406 -4.152344,6.869141 -3.875,7.03125 9.341797,8.544921 -0.169922,6.44336 0.169922,6.443359 -9.341797,8.544922 3.875,7.03125 4.152344,6.869141 12.068359,-3.816407 5.449219,3.339844 5.617187,3.048828 2.728516,12.361317 8.027344,0.16016 8.02539,-0.16016 2.728516,-12.361317 5.617188,-3.103515 5.447265,-3.394532 12.072266,3.816407 4.150392,-6.871094 3.87305,-7.03125 -9.337895,-8.542969 0.166015,-6.388672 -0.167969,-6.388672 9.341799,-8.544921 -3.875,-7.03125 -4.152345,-6.869141 -12.06836,3.816406 -5.449218,-3.339844 -5.617188,-3.048828 -2.728516,-12.361328 z m 0,18.351562 a 25.630989,25.630989 0 0 1 25.630859,25.63086 25.630989,25.630989 0 0 1 -25.630859,25.630859 25.630989,25.630989 0 0 1 -25.63086,-25.630859 25.630989,25.630989 0 0 1 25.63086,-25.63086 z"
       style="fill:url(#linearGradient9453);fill-opacity:1;fill-rule:evenodd;stroke:#000000;stroke-width:1.46608055;stroke-linecap:butt;stroke-linejoin:miter;stroke-opacity:1;stroke-miterlimit:4;stroke-dasharray:none"
       inkscape:connector-curvature="0" />
    <path
       id="path9959"
       d="m 64.269531,42.230469 a 21.5,21.5 0 0 0 -21.5,21.5 21.5,21.5 0 0 0 21.5,21.5 21.5,21.5 0 0 0 21.5,-21.5 21.5,21.5 0 0 0 -21.5,-21.5 z m 0,6.839843 A 14.659091,14.659091 0 0 1 78.929688,63.730469 14.659091,14.659091 0 0 1 64.269531,78.388672 14.659091,14.659091 0 0 1 49.611328,63.730469 14.659091,14.659091 0 0 1 64.269531,49.070312 Z"
       style="opacity:1;fill:url(#linearGradient9453);fill-opacity:1;fill-rule:nonzero;stroke:#000000;stroke-width:1.46608055;stroke-linecap:round;stroke-miterlimit:4;stroke-dasharray:none;stroke-dashoffset:0;stroke-opacity:1"
       inkscape:connector-curvature="0" />
  </g>
</svg>
