<?xml version="1.0" encoding="UTF-8" standalone="no"?>
<!-- Created with Inkscape (http://www.inkscape.org/) -->

<svg xmlns:dc="http://purl.org/dc/elements/1.1/" xmlns:cc="http://creativecommons.org/ns#" xmlns:rdf="http://www.w3.org/1999/02/22-rdf-syntax-ns#"
    xmlns="http://www.w3.org/2000/svg" xmlns:sodipodi="http://sodipodi.sourceforge.net/DTD/sodipodi-0.dtd"
    xmlns:inkscape="http://www.inkscape.org/namespaces/inkscape" version="1.1" id="svg9022" width="24"
    height="24" viewBox="0 0 24 24" sodipodi:docname="ic_action_import.svg" inkscape:version="0.92.5 (2060ec1f9f, 2020-04-08)">
  <metadata
     id="metadata9028">
    <rdf:RDF>
      <cc:Work
         rdf:about="">
        <dc:format>image/svg+xml</dc:format>
        <dc:type
           rdf:resource="http://purl.org/dc/dcmitype/StillImage" />
        <dc:title></dc:title>
      </cc:Work>
    </rdf:RDF>
  </metadata>
  <defs
     id="defs9026" />
  <sodipodi:namedview
     pagecolor="#ffffff"
     bordercolor="#666666"
     borderopacity="1"
     objecttolerance="4"
     gridtolerance="4"
     guidetolerance="10"
     inkscape:pageopacity="0"
     inkscape:pageshadow="2"
     inkscape:window-width="1856"
     inkscape:window-height="1019"
     id="namedview9024"
     showgrid="false"
     inkscape:zoom="9.2385204"
     inkscape:cx="41.053707"
     inkscape:cy="23.571142"
     inkscape:window-x="64"
     inkscape:window-y="24"
     inkscape:window-maximized="1"
     inkscape:current-layer="svg9022" />
  <path
     style="fill:#ffffff;fill-opacity:1;fill-rule:evenodd;stroke:none;stroke-width:0.16098905px;stroke-linecap:butt;stroke-linejoin:miter;stroke-opacity:1"
     d="m 10.224024,3.3161247 11.137554,3.0397555 -3.82628,10.0636018 c -1.200021,3.156205 -1.391076,4.166315 -3.148431,4.728751 -1.485647,0.475192 -3.038991,-0.880674 -3.154913,-3.540303 L 5.1230813,15.116865 Z"
     id="path7571"
     inkscape:connector-curvature="0"
     sodipodi:nodetypes="ccscccc" />
  <path
     inkscape:connector-curvature="0"
     style="fill:#8c8c8c;fill-opacity:1;stroke-width:0.03924342"
     d="M 21.886953,6.0328388 C 21.778572,5.8498364 21.599851,5.7215259 21.393636,5.6796494 L 10.499419,2.8701457 C 10.138775,2.7995629 9.7728806,2.7685592 9.6480573,3.1164647 L 4.9878837,14.910523 5.4413995,15.096404 10.224024,3.3161247 21.361578,6.3558802 c -0.684648,1.8989451 -2.471776,6.4516608 -3.82628,10.0636018 -1.1809,3.151419 -1.390793,4.173885 -3.14843,4.728751 C 12.912387,21.61371 11.34378,20.272551 11.231954,17.60793 L 2.8016611,14.169843 c -0.5990811,3.833704 2.318642,4.755774 2.318642,4.755774 l 6.1721489,2.829223 c 0.0015,8.05e-4 0.964998,0.464151 2.012208,0.416517 2.824653,-0.06715 3.817302,-2.137907 5.061082,-5.455451 1.796892,-4.794654 3.572022,-10.02097 3.58995,-10.0779487 0.06429,-0.2032702 0.0389,-0.4225104 -0.06874,-0.6051185 z"
     id="path6934"
     sodipodi:nodetypes="cccccccccscccccccc" />
  <path
     inkscape:connector-curvature="0"
     style="fill:#8c8c8c;fill-opacity:1;stroke-width:0.03924342"
     d="m 14.572944,8.8934125 c 0.06429,0.017744 0.130838,0.027169 0.196569,0.027169 0.325103,0 0.622554,-0.2188458 0.713711,-0.5509 0.108341,-0.3988513 -0.125605,-0.8108728 -0.52011,-0.9195466 l -3.211698,-1.000815 c -0.390131,-0.1090286 -0.802798,0.1252744 -0.910437,0.5237313 -0.107677,0.398812 0.124121,0.8108729 0.520149,0.9199409 z"
     id="path6936"
     sodipodi:nodetypes="cscccccc" />
  <path
     inkscape:connector-curvature="0"
     style="fill:#8c8c8c;fill-opacity:1;stroke-width:0.03924342"
     d="m 10.052355,10.942728 c -0.3886861,-0.131308 -0.8083828,0.08296 -0.9354712,0.476965 -0.1277915,0.390926 0.08522,0.815053 0.4739065,0.943324 l 3.2015437,1.147895 c 0.07714,0.02638 0.153959,0.0377 0.231837,0.0377 0.310925,0 0.600956,-0.199919 0.7034,-0.513913 0.127752,-0.393173 -0.08448,-0.816511 -0.473165,-0.944822 z"
     id="path6940"
     sodipodi:nodetypes="ccccsccc" />
  <path
     inkscape:connector-curvature="0"
     style="fill:#8c8c8c;fill-opacity:1;stroke-width:0.03924342"
     d="m 16.89858,8.2266928 c 0.453714,0 0.821857,0.3614701 0.821857,0.8067325 0,0.4456173 -0.368143,0.806693 -0.821857,0.806693 -0.454066,0 -0.822208,-0.3611151 -0.822208,-0.806693 3.9e-5,-0.4452624 0.368142,-0.8067325 0.822208,-0.8067325 z"
     id="path6942"
     sodipodi:nodetypes="ssscs" />
  <path
     inkscape:connector-curvature="0"
     style="fill:#8c8c8c;fill-opacity:1;stroke-width:0.03924342"
     d="m 8.3174294,13.605085 c -0.1287289,0.392818 0.08026,0.815841 0.4682432,0.946951 l 3.1948654,1.152667 c 0.07756,0.02606 0.153803,0.03777 0.230704,0.03821 0.311628,0.0017 0.603534,-0.196803 0.707579,-0.511034 0.129081,-0.391754 -0.07952,-0.815408 -0.469064,-0.946439 L 9.2561031,13.133521 c -0.3902874,-0.1304 -0.8084218,0.08056 -0.9386737,0.471564 z"
     id="path6938-5"
     sodipodi:nodetypes="cccccccc" />
  <path
     style="fill:#ffffff;fill-opacity:1;fill-rule:evenodd;stroke:#ffffff;stroke-width:0.55653644;stroke-linecap:butt;stroke-linejoin:miter;stroke-miterlimit:4;stroke-dasharray:none;stroke-opacity:1"
     d="M 17.781336,9.1110513 14.790052,16.403364 8.0125604,15.083773 11.142952,12.779941 C 9.9376165,11.207256 8.207021,8.0146386 3.7150712,12.359215 L 2.5399129,2.461353 C 10.680334,2.2115331 15.147662,7.6591124 14.897503,10.648855 Z"
     id="path13613-2"
     inkscape:connector-curvature="0"
     sodipodi:nodetypes="cccccccc" />
  <path
     style="fill:#00dac8;fill-opacity:1;fill-rule:evenodd;stroke:#8c8c8c;stroke-width:0.50169331;stroke-linecap:butt;stroke-linejoin:miter;stroke-miterlimit:4;stroke-dasharray:none;stroke-opacity:1"
     d="M 17.350158,9.7413409 14.668297,16.190068 8.4533737,14.962531 11.30131,12.943304 C 10.928263,11.001271 8.1976193,7.6679407 3.85742,11.720405 L 3.0156329,2.9666206 C 10.466112,2.8122529 14.927802,8.4306268 14.721994,11.082594 Z"
     id="path13613"
     inkscape:connector-curvature="0"
     sodipodi:nodetypes="cccccccc" />
</svg>
