<?xml version="1.0" encoding="UTF-8" standalone="no"?>
<!-- Created with Inkscape (http://www.inkscape.org/) -->

<svg
   xmlns:dc="http://purl.org/dc/elements/1.1/"
   xmlns:cc="http://creativecommons.org/ns#"
   xmlns:rdf="http://www.w3.org/1999/02/22-rdf-syntax-ns#"
   xmlns:svg="http://www.w3.org/2000/svg"
   xmlns="http://www.w3.org/2000/svg"
   xmlns:xlink="http://www.w3.org/1999/xlink"
   xmlns:sodipodi="http://sodipodi.sourceforge.net/DTD/sodipodi-0.dtd"
   xmlns:inkscape="http://www.inkscape.org/namespaces/inkscape"
   version="1.1"
   id="svg9022"
   width="144"
   height="144"
   viewBox="0 0 144 144"
   sodipodi:docname="ic_action_export.svg"
   inkscape:version="0.92.5 (2060ec1f9f, 2020-04-08)">
  <metadata
     id="metadata9028">
    <rdf:RDF>
      <cc:Work
         rdf:about="">
        <dc:format>image/svg+xml</dc:format>
        <dc:type
           rdf:resource="http://purl.org/dc/dcmitype/StillImage" />
        <dc:title></dc:title>
      </cc:Work>
    </rdf:RDF>
  </metadata>
  <defs
     id="defs9026">
    <linearGradient
       inkscape:collect="always"
       id="linearGradient7577">
      <stop
         style="stop-color:#000000;stop-opacity:1;"
         offset="0"
         id="stop7573" />
      <stop
         style="stop-color:#000000;stop-opacity:0;"
         offset="1"
         id="stop7575" />
    </linearGradient>
    <linearGradient
       inkscape:collect="always"
       xlink:href="#linearGradient7577"
       id="linearGradient7579"
       x1="39.976044"
       y1="142.50357"
       x2="74.393921"
       y2="58.489746"
       gradientUnits="userSpaceOnUse"
       gradientTransform="translate(-1.0688741,1.0688786)" />
  </defs>
  <sodipodi:namedview
     pagecolor="#ffffff"
     bordercolor="#666666"
     borderopacity="1"
     objecttolerance="10"
     gridtolerance="4"
     guidetolerance="10"
     inkscape:pageopacity="0"
     inkscape:pageshadow="2"
     inkscape:window-width="1856"
     inkscape:window-height="1019"
     id="namedview9024"
     showgrid="false"
     inkscape:zoom="3.9875418"
     inkscape:cx="82.133908"
     inkscape:cy="85.242941"
     inkscape:window-x="64"
     inkscape:window-y="24"
     inkscape:window-maximized="1"
     inkscape:current-layer="svg9022"
     inkscape:snap-path-clip="false"
     inkscape:snap-path-mask="false" />
  <path
     style="fill:url(#linearGradient7579);fill-opacity:1;fill-rule:evenodd;stroke:none;stroke-width:1px;stroke-linecap:butt;stroke-linejoin:miter;stroke-opacity:1"
     d="m 58.608342,14.857442 69.182058,18.881754 -23.76733,62.5111 c -7.454049,19.605094 -8.640806,25.879494 -19.556798,29.373124 -9.228253,2.9517 -18.87701,-5.4704 -19.59707,-21.99096 L 26.92331,88.158953 Z"
     id="path7571"
     inkscape:connector-curvature="0"
     sodipodi:nodetypes="ccscccc" />
  <path
     inkscape:connector-curvature="0"
     style="fill:#030104;fill-opacity:0.64018692;stroke-width:0.24376456"
     d="m 131.05382,31.732591 c -0.67322,-1.136738 -1.78336,-1.933752 -3.06429,-2.193872 L 60.318981,12.087197 c -2.240176,-0.438432 -4.512965,-0.631015 -5.288318,1.530036 l -28.947148,73.260005 2.81706,1.15462 29.707767,-73.174416 69.182058,18.881754 c -4.25276,11.795493 -15.35369,40.075157 -23.76733,62.5111 -7.33528,19.575364 -8.639056,25.926514 -19.556798,29.373124 -9.158887,2.89136 -18.902453,-5.43939 -19.59707,-21.99096 L 12.503568,82.276429 C 8.7823141,106.08988 26.906052,111.81741 26.906052,111.81741 l 38.338939,17.57401 c 0.0092,0.005 5.994182,2.88312 12.499038,2.58724 17.54562,-0.41713 23.711561,-13.27983 31.437431,-33.887095 11.16158,-29.78249 22.18799,-62.246289 22.29934,-62.600218 0.39932,-1.262634 0.24163,-2.624467 -0.42698,-3.758756 z"
     id="path6934"
     sodipodi:nodetypes="cccccccccscccccccc" />
  <path
     inkscape:connector-curvature="0"
     style="fill:#030104;stroke-width:0.24376456"
     d="m 85.622103,49.501339 c 0.399321,0.11022 0.812713,0.16876 1.22101,0.16876 2.019409,0 3.867057,-1.359383 4.433288,-3.421972 0.672974,-2.477506 -0.780205,-5.03682 -3.230716,-5.711858 L 68.09589,34.319603 c -2.423339,-0.677242 -4.98666,0.778155 -5.655268,3.253211 -0.66885,2.477262 0.770986,5.036821 3.230958,5.714308 z"
     id="path6936"
     sodipodi:nodetypes="cscccccc" />
  <path
     inkscape:connector-curvature="0"
     style="fill:#030104;stroke-width:0.24376456"
     d="m 57.020563,50.446076 c -0.799612,2.440031 0.498545,5.067682 2.908541,5.882087 l 19.694072,6.70642 c 0.481805,0.161901 0.955362,0.234646 1.433043,0.237341 1.935712,0.01029 3.748911,-1.222465 4.3952,-3.174343 0.801795,-2.433419 -0.493936,-5.064988 -2.913636,-5.878903 L 62.851231,47.516912 c -2.42431,-0.809997 -5.021594,0.5004 -5.830668,2.929164 z"
     id="path6938"
     sodipodi:nodetypes="cccccccc" />
  <path
     inkscape:connector-curvature="0"
     style="fill:#030104;stroke-width:0.24376456"
     d="m 57.541999,62.230871 c -2.414363,-0.815629 -5.021352,0.515341 -5.810775,2.962721 -0.79379,2.428274 0.529355,5.062783 2.943719,5.859553 l 19.886718,7.13027 c 0.479137,0.163861 0.956333,0.234157 1.440079,0.234157 1.931345,0 3.732899,-1.241815 4.369241,-3.192224 0.793547,-2.442235 -0.524746,-5.071845 -2.939109,-5.86886 z"
     id="path6940"
     sodipodi:nodetypes="ccccsccc" />
  <path
     inkscape:connector-curvature="0"
     style="fill:#030104;stroke-width:0.24376456"
     d="m 100.06803,45.359941 c 2.8183,0 5.10505,2.245309 5.10505,5.011102 0,2.767998 -2.28675,5.010857 -5.10505,5.010857 -2.820475,0 -5.107231,-2.243104 -5.107231,-5.010857 2.43e-4,-2.765793 2.286756,-5.011102 5.107231,-5.011102 z"
     id="path6942"
     sodipodi:nodetypes="ssscs" />
  <path
     inkscape:connector-curvature="0"
     style="fill:#030104;stroke-width:0.24376456"
     d="m 95.415804,58.244225 c 2.82072,0 5.105046,2.243104 5.105046,5.008653 0,2.763344 -2.284326,5.006203 -5.105046,5.006203 -2.820477,0 -5.107233,-2.242859 -5.107233,-5.006203 0,-2.765304 2.286756,-5.008653 5.107233,-5.008653 z"
     id="path6944"
     sodipodi:nodetypes="sssss" />
  <path
     inkscape:connector-curvature="0"
     style="fill:#030104;stroke-width:0.24376456"
     d="m 89.980662,72.777423 c 2.82072,0 5.107233,2.245554 5.107233,5.016001 0,2.765303 -2.286513,5.005958 -5.107233,5.005958 -2.820477,0 -5.107233,-2.240165 -5.107233,-5.005958 0,-2.770447 2.286756,-5.016001 5.107233,-5.016001 z"
     id="path6946"
     sodipodi:nodetypes="sssss" />
  <path
     inkscape:connector-curvature="0"
     style="fill:#030104;stroke-width:0.24376456"
     d="m 46.765332,78.768377 c -0.799613,2.440031 0.498544,5.067682 2.908541,5.882087 l 19.845234,7.159907 c 0.481805,0.161901 0.955362,0.234647 1.433043,0.237341 1.935712,0.01029 3.748911,-1.222465 4.395199,-3.174343 0.801796,-2.433418 -0.493935,-5.064988 -2.913636,-5.878903 L 52.596,75.839212 c -2.42431,-0.809996 -5.021595,0.5004 -5.830668,2.929165 z"
     id="path6938-5"
     sodipodi:nodetypes="cccccccc" />
  <path
     inkscape:connector-curvature="0"
     style="fill:#030104;stroke-width:0.24376456"
     d="m 85.160577,86.566525 c 2.82072,0 5.10505,2.243105 5.10505,5.008653 0,2.763344 -2.28433,5.006204 -5.10505,5.006204 -2.82048,0 -5.107237,-2.24286 -5.107237,-5.006204 0,-2.765303 2.286757,-5.008653 5.107237,-5.008653 z"
     id="path6944-0"
     sodipodi:nodetypes="sssss" />
  <path
     style="fill:#fffeff;fill-opacity:1;fill-rule:evenodd;stroke:#ffffff;stroke-width:3.14993906;stroke-linecap:butt;stroke-linejoin:miter;stroke-miterlimit:4;stroke-dasharray:none;stroke-opacity:1"
     d="M 61.501429,5.9069822 14.113553,10.388369 11.970031,46.670046 30.141659,34.178514 c 7.509777,8.411845 32.230039,26.558933 0.02889,42.962564 L 85.23594,100.90322 C 98.631265,60.012269 66.207235,21.381021 48.208614,18.270691 Z"
     id="path13613-2"
     inkscape:connector-curvature="0"
     sodipodi:nodetypes="cccccccc" />
  <path
     style="fill:#13feff;fill-opacity:1;fill-rule:evenodd;stroke:#000000;stroke-width:2.83953261;stroke-linecap:butt;stroke-linejoin:miter;stroke-miterlimit:4;stroke-dasharray:none;stroke-opacity:1"
     d="M 57.152769,7.1692538 15.19317,11.317792 13.330655,44.613491 29.410133,33.136708 c 10.906957,4.734561 34.99248,28.15609 4.736329,44.218398 L 82.952796,97.752291 C 94.774733,60.21829 61.335172,21.365498 45.393561,18.525024 Z"
     id="path13613"
     inkscape:connector-curvature="0"
     sodipodi:nodetypes="cccccccc" />
</svg>
