<?xml version="1.0" encoding="UTF-8" standalone="no"?>
<!-- Created with Inkscape (http://www.inkscape.org/) -->

<svg xmlns:dc="http://purl.org/dc/elements/1.1/" xmlns:cc="http://creativecommons.org/ns#" xmlns:rdf="http://www.w3.org/1999/02/22-rdf-syntax-ns#"
    xmlns="http://www.w3.org/2000/svg" xmlns:sodipodi="http://sodipodi.sourceforge.net/DTD/sodipodi-0.dtd"
    xmlns:inkscape="http://www.inkscape.org/namespaces/inkscape" version="1.1" id="svg9022" width="24"
    height="24" viewBox="0 0 24 24" sodipodi:docname="ic_action_export.svg" inkscape:version="0.92.5 (2060ec1f9f, 2020-04-08)">
  <metadata
     id="metadata9028">
    <rdf:RDF>
      <cc:Work
         rdf:about="">
        <dc:format>image/svg+xml</dc:format>
        <dc:type
           rdf:resource="http://purl.org/dc/dcmitype/StillImage" />
        <dc:title></dc:title>
      </cc:Work>
    </rdf:RDF>
  </metadata>
  <defs
     id="defs9026" />
  <sodipodi:namedview
     pagecolor="#ffffff"
     bordercolor="#666666"
     borderopacity="1"
     objecttolerance="10"
     gridtolerance="4"
     guidetolerance="10"
     inkscape:pageopacity="0"
     inkscape:pageshadow="2"
     inkscape:window-width="1856"
     inkscape:window-height="1019"
     id="namedview9024"
     showgrid="false"
     inkscape:zoom="11.036556"
     inkscape:cx="30.455392"
     inkscape:cy="2.3384293"
     inkscape:window-x="64"
     inkscape:window-y="24"
     inkscape:window-maximized="1"
     inkscape:current-layer="svg9022"
     inkscape:snap-path-clip="false"
     inkscape:snap-path-mask="false" />
  <path
     style="fill:#ffffff;fill-opacity:1;fill-rule:evenodd;stroke:none;stroke-width:0.15613104px;stroke-linecap:butt;stroke-linejoin:miter;stroke-opacity:1"
     d="M 9.9857064,3.870922 20.787174,6.8189501 17.076356,16.578874 c -1.163809,3.060964 -1.349099,4.040592 -3.053424,4.586056 -1.440817,0.460852 -2.947287,-0.854099 -3.059711,-3.433471 L 5.0386891,15.315564 Z"
     id="path7571"
     inkscape:connector-curvature="0"
     sodipodi:nodetypes="ccscccc" />
  <path
     inkscape:connector-curvature="0"
     style="fill:#8c8c8c;fill-opacity:1;stroke-width:0.03805922"
     d="M 21.296695,6.5056568 C 21.191584,6.3281767 21.018257,6.203738 20.818264,6.1631252 L 10.25279,3.4384008 C 9.9030292,3.3699479 9.5481763,3.3398797 9.4271196,3.6772869 L 4.907571,15.115448 5.3474015,15.29572 9.9857064,3.870922 20.787174,6.8189501 c -0.663988,1.8416427 -2.397188,6.2569759 -3.710818,9.7599239 -1.145265,3.056322 -1.348825,4.047934 -3.053424,4.586056 -1.429986,0.451432 -2.95126,-0.849257 -3.059711,-3.433471 l -8.1759014,-3.33434 c -0.5810033,3.718019 2.248675,4.612265 2.248675,4.612265 l 5.9858984,2.743848 c 0.0014,7.81e-4 0.935878,0.450145 1.951488,0.403949 2.739416,-0.06513 3.702111,-2.073394 4.908359,-5.290828 1.74267,-4.649971 3.464235,-9.7185784 3.48162,-9.7738377 0.06235,-0.1971364 0.03773,-0.4097608 -0.06667,-0.5868585 z"
     id="path6934"
     sodipodi:nodetypes="cccccccccscccccccc" />
  <path
     inkscape:connector-curvature="0"
     style="fill:#8c8c8c;fill-opacity:1;stroke-width:0.03805922"
     d="m 14.203393,9.27991 c 0.06235,0.017209 0.12689,0.026349 0.190638,0.026349 0.315292,0 0.603768,-0.2122419 0.692174,-0.5342761 C 15.191277,8.385167 14.964391,7.9855786 14.58179,7.8801842 L 11.467007,6.9095697 c -0.378358,-0.1057386 -0.778572,0.1214941 -0.882963,0.5079272 -0.104428,0.3867775 0.120375,0.7864042 0.504453,0.8921809 z"
     id="path6936"
     sodipodi:nodetypes="cscccccc" />
  <path
     inkscape:connector-curvature="0"
     style="fill:#8c8c8c;fill-opacity:1;stroke-width:0.03805922"
     d="m 16.458851,8.6333092 c 0.440024,0 0.797057,0.3505625 0.797057,0.7823886 0,0.4321705 -0.357033,0.7823502 -0.797057,0.7823502 -0.440364,0 -0.797397,-0.350218 -0.797397,-0.7823502 3.8e-5,-0.4318261 0.357033,-0.7823886 0.797397,-0.7823886 z"
     id="path6942"
     sodipodi:nodetypes="ssscs" />
  <path
     inkscape:connector-curvature="0"
     style="fill:#8c8c8c;fill-opacity:1;stroke-width:0.03805922"
     d="m 15.732494,10.644946 c 0.440402,0 0.797056,0.350218 0.797056,0.782006 0,0.431444 -0.356654,0.781624 -0.797056,0.781624 -0.440364,0 -0.797398,-0.35018 -0.797398,-0.781624 0,-0.43175 0.357034,-0.782006 0.797398,-0.782006 z"
     id="path6944"
     sodipodi:nodetypes="sssss" />
  <path
     inkscape:connector-curvature="0"
     style="fill:#8c8c8c;fill-opacity:1;stroke-width:0.03805922"
     d="m 14.8839,12.914029 c 0.440402,0 0.797397,0.350601 0.797397,0.783154 0,0.43175 -0.356995,0.781585 -0.797397,0.781585 -0.440364,0 -0.797398,-0.349759 -0.797398,-0.781585 0,-0.432553 0.357034,-0.783154 0.797398,-0.783154 z"
     id="path6946"
     sodipodi:nodetypes="sssss" />
  <path
     inkscape:connector-curvature="0"
     style="fill:#8c8c8c;fill-opacity:1;stroke-width:0.03805922"
     d="m 14.131335,15.066936 c 0.440402,0 0.797057,0.350219 0.797057,0.782007 0,0.431443 -0.356655,0.781624 -0.797057,0.781624 -0.440365,0 -0.797399,-0.350181 -0.797399,-0.781624 0,-0.43175 0.357034,-0.782007 0.797399,-0.782007 z"
     id="path6944-0"
     sodipodi:nodetypes="sssss" />
  <path
     style="fill:#ffffff;fill-opacity:1;fill-rule:evenodd;stroke:#ffffff;stroke-width:0.49180329;stroke-linecap:butt;stroke-linejoin:miter;stroke-miterlimit:4;stroke-dasharray:none;stroke-opacity:1"
     d="M 10.437407,2.4734773 3.0386883,3.173161 2.7040179,8.8378573 5.5411733,6.8875413 c 1.1725094,1.3133502 5.0321097,4.1466737 0.00451,6.7077907 L 14.143101,17.30534 C 16.234527,10.920993 11.17213,4.8894553 8.3619859,4.4038362 Z"
     id="path13613-2"
     inkscape:connector-curvature="0"
     sodipodi:nodetypes="cccccccc" />
  <path
     style="fill:#00dac8;fill-opacity:1;fill-rule:evenodd;stroke:#8c8c8c;stroke-width:0.4433392;stroke-linecap:butt;stroke-linejoin:miter;stroke-miterlimit:4;stroke-dasharray:none;stroke-opacity:1"
     d="M 9.7584463,2.6705571 3.20725,3.3182727 2.9164536,8.5167652 5.4269594,6.724883 c 1.7029146,0.739212 5.4634126,4.39604 0.739488,6.903865 l 7.6201846,3.184634 C 15.632403,10.953159 10.411449,4.8870316 7.9224688,4.4435454 Z"
     id="path13613"
     inkscape:connector-curvature="0"
     sodipodi:nodetypes="cccccccc" />
</svg>
