<?xml version="1.0" encoding="UTF-8" standalone="no"?>
<!-- Created with Inkscape (http://www.inkscape.org/) -->

<svg xmlns:dc="http://purl.org/dc/elements/1.1/" xmlns:cc="http://creativecommons.org/ns#" xmlns:rdf="http://www.w3.org/1999/02/22-rdf-syntax-ns#"
    xmlns="http://www.w3.org/2000/svg" xmlns:sodipodi="http://sodipodi.sourceforge.net/DTD/sodipodi-0.dtd"
    xmlns:inkscape="http://www.inkscape.org/namespaces/inkscape" version="1.1" id="svg7916" width="24"
    height="24" viewBox="0 0 24 24" sodipodi:docname="ic_action_delete.svg" inkscape:version="0.92.5 (2060ec1f9f, 2020-04-08)">
  <metadata
     id="metadata7922">
    <rdf:RDF>
      <cc:Work
         rdf:about="">
        <dc:format>image/svg+xml</dc:format>
        <dc:type
           rdf:resource="http://purl.org/dc/dcmitype/StillImage" />
        <dc:title></dc:title>
      </cc:Work>
    </rdf:RDF>
  </metadata>
  <defs
     id="defs7920" />
  <sodipodi:namedview
     pagecolor="#ffffff"
     bordercolor="#666666"
     borderopacity="1"
     objecttolerance="10"
     gridtolerance="10"
     guidetolerance="10"
     inkscape:pageopacity="0"
     inkscape:pageshadow="2"
     inkscape:window-width="1856"
     inkscape:window-height="1019"
     id="namedview7918"
     showgrid="false"
     inkscape:zoom="29.130816"
     inkscape:cx="11.368325"
     inkscape:cy="15.234559"
     inkscape:window-x="64"
     inkscape:window-y="24"
     inkscape:window-maximized="1"
     inkscape:current-layer="svg7916" />
  <path
     sodipodi:nodetypes="cccscsccssccccccccccccccscccccsscssccsscccccccssscscccscs"
     inkscape:connector-curvature="0"
     id="path8623"
     d="M 7.3209444,21.715749 C 6.6793385,21.599659 6.0835015,21.091421 5.9207148,20.52138 L 4.8999068,8.1905314 c 0,-0.057444 0.070234,-0.1687519 0.1560702,-0.2472584 L 5.2120493,7.8005296 h 6.6663357 c 7.210308,0 6.805814,-0.014337 6.958137,0.2460075 l -0.96454,12.3959519 c -0.169026,0.644438 -0.675151,1.106394 -1.377952,1.257682 -0.238771,0.05138 -1.201736,0.06398 -4.626355,0.06033 -2.3786526,-0.0029 -4.4246829,-0.02261 -4.5467354,-0.04475 z M 8.9433307,19.534012 8.4208288,9.2811163 C 8.2200663,9.2199199 7.9646271,9.0739338 7.7380839,9.3952918 c 0.013088,3.6665962 0.1352582,5.7380742 0.2902949,10.1371132 0.3567149,0.360173 0.6555539,0.349415 0.9149519,0.002 z M 12.374918,19.514863 12.234997,9.1687786 C 12.043652,8.9259464 11.775713,8.975731 11.52874,9.1429433 L 11.49965,19.610622 c 0.378414,0.248452 0.604961,0.230372 0.87527,-0.09574 z m 3.20117,0.161651 C 15.865951,16.000796 15.95439,13.266722 16.066817,9.4146899 15.954728,9.2144064 15.811378,9.2074497 15.668928,9.1414327 15.502783,9.1033289 15.21823,9.2324572 15.148458,9.3777315 L 14.845136,19.553621 c 0.27646,0.431339 0.453031,0.387 0.730952,0.122903 z M 4.1248728,5.8489369 c 0,-0.4851641 0.286404,-0.9831352 0.6903607,-1.2003343 C 5.0588964,4.5175885 5.0612096,4.5173901 6.4207648,4.4929849 L 7.7822842,4.4685443 7.8177794,4.0425271 C 7.8944943,3.1218685 8.4853512,2.4922963 9.4108835,2.3450401 9.6448317,2.3078027 10.548981,2.2947942 12.187191,2.304916 l 2.429375,0.01501 0.355523,0.1540493 c 0.700383,0.3034802 1.056906,0.8014032 1.108593,1.5482877 l 0.03088,0.4462909 1.281426,0.02444 c 1.407069,0.026845 1.44393,0.034062 1.791637,0.3520621 0.476791,0.4360723 0.556041,1.3556055 0.129614,1.5038817 C 19.119265,6.4167736 4.4435457,6.4523904 4.3201402,6.3769396 4.1967346,6.3014888 4.1248728,6.0387419 4.1248728,5.8489369 Z M 14.990321,4.1424913 c 0,-0.3640607 -0.08522,-0.5157624 -0.399904,-0.7116196 l -0.176514,-0.1098648 -2.434827,7.7e-5 C 9.2647045,3.3211697 9.3003445,3.3172351 9.0514292,3.6578468 8.9548343,3.7900925 8.9302311,3.8917786 8.9302311,4.1587814 v 0.3350117 l 3.0300459,-0.012605 3.030044,-0.012605 z"
     style="fill:#d8d8d8;fill-opacity:1;stroke:#8c8c8c;stroke-width:0.54001302;stroke-miterlimit:4;stroke-dasharray:none;stroke-opacity:1" />
</svg>
