<?xml version="1.0" encoding="UTF-8" standalone="no"?>
<!-- Created with Inkscape (http://www.inkscape.org/) -->

<svg
   xmlns:dc="http://purl.org/dc/elements/1.1/"
   xmlns:cc="http://creativecommons.org/ns#"
   xmlns:rdf="http://www.w3.org/1999/02/22-rdf-syntax-ns#"
   xmlns:svg="http://www.w3.org/2000/svg"
   xmlns="http://www.w3.org/2000/svg"
   xmlns:xlink="http://www.w3.org/1999/xlink"
   xmlns:sodipodi="http://sodipodi.sourceforge.net/DTD/sodipodi-0.dtd"
   xmlns:inkscape="http://www.inkscape.org/namespaces/inkscape"
   version="1.1"
   id="svg7363"
   width="144"
   height="144"
   viewBox="0 0 144 144"
   sodipodi:docname="ic_action_edit.svg"
   inkscape:version="0.92.5 (2060ec1f9f, 2020-04-08)">
  <metadata
     id="metadata7369">
    <rdf:RDF>
      <cc:Work
         rdf:about="">
        <dc:format>image/svg+xml</dc:format>
        <dc:type
           rdf:resource="http://purl.org/dc/dcmitype/StillImage" />
        <dc:title />
      </cc:Work>
    </rdf:RDF>
  </metadata>
  <defs
     id="defs7367">
    <linearGradient
       inkscape:collect="always"
       id="linearGradient5963">
      <stop
         style="stop-color:#000000;stop-opacity:1;"
         offset="0"
         id="stop5959" />
      <stop
         style="stop-color:#000000;stop-opacity:0;"
         offset="1"
         id="stop5961" />
    </linearGradient>
    <linearGradient
       inkscape:collect="always"
       xlink:href="#linearGradient5963"
       id="linearGradient5965"
       x1="85.031792"
       y1="89.654427"
       x2="59.387283"
       y2="61.760391"
       gradientUnits="userSpaceOnUse" />
  </defs>
  <sodipodi:namedview
     pagecolor="#ffffff"
     bordercolor="#666666"
     borderopacity="1"
     objecttolerance="10"
     gridtolerance="10"
     guidetolerance="10"
     inkscape:pageopacity="0"
     inkscape:pageshadow="2"
     inkscape:window-width="1856"
     inkscape:window-height="1019"
     id="namedview7365"
     showgrid="false"
     inkscape:zoom="2.2226981"
     inkscape:cx="29.220405"
     inkscape:cy="82.026891"
     inkscape:window-x="64"
     inkscape:window-y="24"
     inkscape:window-maximized="1"
     inkscape:current-layer="svg7363" />
  <path
     style="fill:url(#linearGradient5965);fill-opacity:1;fill-rule:evenodd;stroke:none;stroke-width:1px;stroke-linecap:butt;stroke-linejoin:miter;stroke-opacity:1"
     d="M 13.49711,130.27794 20.268939,100.2809 82.205063,39.083731 101.22832,19.82659 l 12.00772,-7.687785 16.78612,17.135762 0.8998,5.848748 -5.98262,7.388752 -80.759527,81.464963 z"
     id="path5957"
     inkscape:connector-curvature="0"
     sodipodi:nodetypes="cccccccccc" />
  <rect
     style="opacity:1;fill:#fafafa;fill-opacity:0.19607843;fill-rule:nonzero;stroke:none;stroke-width:1;stroke-linecap:round;stroke-miterlimit:4;stroke-dasharray:none;stroke-dashoffset:0;stroke-opacity:1"
     id="rect2042"
     width="120"
     height="120"
     x="12"
     y="12" />
  <g
     id="g10155"
     transform="matrix(-0.01224488,0,0,-0.01223158,133.22458,73.345631)">
    <path
       id="path10145"
       d="M 1632.4,5004 C 1576.7,4992.3 1483,4957.1 1427.3,4930.8 1275,4851.7 246.7,3811.6 167.6,3656.4 91.4,3504 76.8,3258 138.3,3082.2 182.2,2950.4 615.8,2481.6 692,2481.6 c 26.4,0 254.9,208 512.7,465.8 375,377.9 460,474.6 451.2,533.2 -5.8,46.9 -32.2,73.2 -79.1,79.1 -55.7,8.8 -146.5,-67.4 -474.6,-392.6 L 695,2759.9 519.2,2935.7 c -208,208 -260.7,339.8 -205.1,527.3 26.4,93.8 149.4,231.4 594.7,685.5 618.2,621.1 723.6,697.3 937.5,662.1 99.6,-17.6 167,-64.5 375,-266.6 140.6,-134.7 263.7,-246.1 275.4,-246.1 52.7,0 131.8,67.4 131.8,111.3 0,70.3 -430.7,492.2 -556.6,542 -137.7,58.7 -313.5,79.2 -439.5,52.8 z"
       inkscape:connector-curvature="0" />
    <path
       id="path10147"
       d="m 1770.1,3337.1 c -600.6,-600.6 -928.7,-949.2 -928.7,-987.3 0,-70.3 1192.4,-1274.4 1259.8,-1274.4 58.6,0 1933.6,1877.9 1933.6,1933.6 0,67.4 -1207,1259.7 -1274.4,1259.7 -38.1,0 -389.7,-331.1 -990.3,-931.6 z m 383.8,-378 -829.1,-829.1 -108.4,108.4 -111.3,108.4 826.2,829.1 829.1,829.1 108.4,-108.4 111.3,-108.4 z m 1113.3,539.1 123,-123.1 -829.1,-829.1 -826.1,-826.1 -131.8,131.8 -131.8,131.8 820.3,820.3 c 451.2,451.2 826.2,820.3 835,820.3 8.8,0 73.1,-55.6 140.5,-125.9 z m 474.6,-501 c 0,-41 -1585,-1628.9 -1623,-1628.9 -17.6,0 -73.2,41 -126,93.8 l -96.7,93.7 826.2,829.1 826.2,829.1 96.7,-93.8 c 52.6,-52.7 96.6,-108.3 96.6,-123 z"
       inkscape:connector-curvature="0" />
    <path
       id="path10149"
       d="m 3191,1916.2 c -518.6,-518.6 -943.4,-963.9 -943.4,-987.3 0,-23.4 1130.8,-1174.8 2513.6,-2557.6 L 7272,-4139.4 7814,-4283 c 298.8,-79.1 641.6,-169.9 761.7,-202.1 1209.9,-325.2 1262.7,-336.9 1309.6,-290 46.9,46.9 2.9,240.2 -448.2,1904.3 -87.9,316.4 -158.2,600.6 -158.2,629.9 0,61.5 -5036.1,5103.5 -5097.6,5103.5 -23.5,-0.1 -468.8,-424.9 -990.3,-946.4 z m 4968.7,-4962.9 -829.1,-829.1 -2408.2,2408.2 -2411.1,2411.1 826.2,826.2 829.1,829.1 2408.2,-2408.2 2411.1,-2411.1 z m 1057.6,149.4 c 67.4,-246.1 120.1,-468.7 120.1,-501 0,-70.3 -758.8,-829.1 -829.1,-829.1 -29.3,0 -257.8,55.7 -506.8,123 l -457,120.1 770.5,770.5 c 424.8,424.8 773.4,767.6 776.4,764.7 2.9,-2.9 61.5,-205 125.9,-448.2 z"
       inkscape:connector-curvature="0"
       sodipodi:nodetypes="ssccccscscsccccccccccssccscc" />
    <path
       id="path10151"
       d="m 3894.1,2124.2 c -20.5,-20.5 -35.2,-55.7 -35.2,-82 0,-23.4 1019.5,-1063.5 2267.6,-2311.5 2085.9,-2086 2273.5,-2264.7 2343.8,-2247.1 52.7,11.7 76.2,38.1 76.2,85 0,46.9 -615.2,679.7 -2264.6,2329.1 -1242.3,1242.1 -2282.3,2261.6 -2308.7,2261.6 -23.4,0 -58.6,-14.6 -79.1,-35.1 z"
       inkscape:connector-curvature="0" />
    <path
       id="path10153"
       d="m 2985.9,1216 c -20.5,-20.5 -35.2,-55.7 -35.2,-82 0,-23.4 1019.5,-1063.5 2264.6,-2308.6 1907.2,-1907.2 2279.3,-2264.6 2337.9,-2255.8 46.9,5.8 73.2,32.2 79.1,79.1 8.8,58.6 -348.6,430.7 -2255.8,2337.9 -1245.1,1245 -2285.1,2264.5 -2308.6,2264.5 -26.3,0 -61.5,-14.6 -82,-35.1 z"
       inkscape:connector-curvature="0" />
  </g>
</svg>
