<?xml version="1.0" encoding="UTF-8" standalone="no"?>
<!-- Created with Inkscape (http://www.inkscape.org/) -->

<svg xmlns:dc="http://purl.org/dc/elements/1.1/" xmlns:cc="http://creativecommons.org/ns#" xmlns:rdf="http://www.w3.org/1999/02/22-rdf-syntax-ns#"
    xmlns="http://www.w3.org/2000/svg" xmlns:xlink="http://www.w3.org/1999/xlink" xmlns:sodipodi="http://sodipodi.sourceforge.net/DTD/sodipodi-0.dtd"
    xmlns:inkscape="http://www.inkscape.org/namespaces/inkscape" version="1.1" id="svg9022" width="24"
    height="24" viewBox="0 0 24 24" sodipodi:docname="ic_action_import.svg" inkscape:version="0.92.5 (2060ec1f9f, 2020-04-08)">
  <metadata
     id="metadata9028">
    <rdf:RDF>
      <cc:Work
         rdf:about="">
        <dc:format>image/svg+xml</dc:format>
        <dc:type
           rdf:resource="http://purl.org/dc/dcmitype/StillImage" />
        <dc:title />
      </cc:Work>
    </rdf:RDF>
  </metadata>
  <defs
     id="defs9026">
    <linearGradient
       xlink:href="#linearGradient7577"
       id="linearGradient7579"
       x1="39.976044"
       y1="142.50357"
       x2="74.393921"
       y2="58.489746"
       gradientUnits="userSpaceOnUse"
       gradientTransform="matrix(0.17927453,0,0,0.18134227,-0.59954466,-0.9497992)" />
    <linearGradient
       id="linearGradient7577">
      <stop
         style="stop-color:#000000;stop-opacity:1;"
         offset="0"
         id="stop7573" />
      <stop
         style="stop-color:#000000;stop-opacity:0;"
         offset="1"
         id="stop7575" />
    </linearGradient>
  </defs>
  <sodipodi:namedview
     pagecolor="#ffffff"
     bordercolor="#666666"
     borderopacity="1"
     objecttolerance="4"
     gridtolerance="4"
     guidetolerance="10"
     inkscape:pageopacity="0"
     inkscape:pageshadow="2"
     inkscape:window-width="1856"
     inkscape:window-height="1016"
     id="namedview9024"
     showgrid="false"
     inkscape:zoom="25.392945"
     inkscape:cx="7.6062493"
     inkscape:cy="12.770003"
     inkscape:window-x="64"
     inkscape:window-y="27"
     inkscape:window-maximized="1"
     inkscape:current-layer="svg9022"
     showguides="false" />
  <path
     inkscape:connector-curvature="0"
     style="fill:url(#linearGradient7579);fill-opacity:1;fill-rule:evenodd;stroke:none;stroke-width:0.18030544px;stroke-linecap:butt;stroke-linejoin:miter;stroke-opacity:1"
     d="M 10.099061,1.5506502 22.501642,4.9747101 17.931805,17.355945 c -1.473006,3.372957 -2.03181,4.456686 -4.309155,4.523898 -1.501933,0.04433 -2.796883,-0.839845 -2.401177,-4.23053 L 4.7955656,15.025248 Z"
     id="path10972" />
  <path
     inkscape:connector-curvature="0"
     id="path6944-0"
     style="fill:#030104;stroke:none;stroke-width:0.04395208"
     d="m 14.359122,14.827308 c 0.505683,0 0.915205,0.40677 0.915205,0.90828 0,0.501111 -0.409522,0.907837 -0.915205,0.907837 -0.50564,0 -0.915598,-0.406726 -0.915598,-0.907837 0,-0.501466 0.409958,-0.90828 0.915598,-0.90828 z M 7.4758323,13.413174 c -0.1433505,0.442481 0.089376,0.918985 0.5214271,1.066671 l 3.5577456,1.298394 c 0.08638,0.02936 0.171272,0.04255 0.256908,0.04304 0.347024,0.0019 0.672084,-0.221685 0.787947,-0.575643 0.143742,-0.441281 -0.08855,-0.918496 -0.522341,-1.066093 L 8.5211224,12.881993 C 8.0865053,12.735106 7.6208783,12.972733 7.4758323,13.413174 Z M 15.22324,12.326761 c 0.505684,0 0.915597,0.407214 0.915597,0.909613 0,0.501466 -0.409913,0.907792 -0.915597,0.907792 -0.505639,0 -0.915596,-0.406237 -0.915596,-0.907792 0,-0.502399 0.409957,-0.909613 0.915596,-0.909613 z m 0.974383,-2.6354832 c 0.505683,0 0.915205,0.4067692 0.915205,0.9082802 0,0.501111 -0.409522,0.907837 -0.915205,0.907837 -0.50564,0 -0.915597,-0.406726 -0.915597,-0.907837 0,-0.501466 0.409957,-0.9082802 0.915597,-0.9082802 z m 0.834026,-2.3364654 c 0.505249,0 0.915205,0.4071696 0.915205,0.9087246 0,0.5019551 -0.409956,0.9086804 -0.915205,0.9086804 -0.50564,0 -0.915597,-0.4067697 -0.915597,-0.9086804 4.4e-5,-0.501555 0.409957,-0.9087246 0.915597,-0.9087246 z M 9.4078142,10.414225 c -0.432834,-0.147908 -0.9002006,0.09345 -1.0417242,0.537267 -0.1423063,0.440348 0.0949,0.918096 0.527734,1.062584 l 3.565182,1.29302 c 0.0859,0.02971 0.171446,0.04246 0.25817,0.04246 0.346241,0 0.669213,-0.225193 0.783293,-0.578885 0.142263,-0.44288 -0.09407,-0.91974 -0.526907,-1.064272 z m -0.09348,-2.1370814 c -0.1433499,0.442481 0.089376,0.9189852 0.521427,1.0666711 l 3.5306462,1.2161573 c 0.08637,0.02936 0.171272,0.04255 0.256908,0.04304 0.347024,0.0019 0.672084,-0.221685 0.787948,-0.575643 0.143741,-0.4412813 -0.08855,-0.918496 -0.522341,-1.066093 L 10.359624,7.7459626 C 9.9250068,7.5990757 9.4593802,7.8367062 9.3143338,8.2771436 Z M 14.441862,8.1058231 c 0.07159,0.019989 0.145699,0.030603 0.218896,0.030603 0.362028,0 0.693265,-0.2465137 0.794775,-0.6205484 C 15.57618,7.0666017 15.315662,6.6024898 14.876348,6.4800768 L 11.299858,5.3527326 C 10.865415,5.22992 10.405877,5.493845 10.286013,5.9426771 10.166105,6.3919095 10.424231,6.8560658 10.865241,6.9789229 Z M 1.3335705,14.049332 c -0.66712614,4.318385 2.5819984,5.357029 2.5819984,5.357029 l 6.8731961,3.18691 c 0.0016,9.07e-4 1.074604,0.522832 2.240759,0.469177 3.453033,0.0226 4.361254,-2.730573 5.63593,-6.145163 2.014258,-5.395775 3.977742,-11.2878834 3.997704,-11.3520656 0.07159,-0.228969 0.04332,-0.475927 -0.07655,-0.6816216 C 22.465917,4.6774592 22.266898,4.5329268 22.03726,4.4857563 L 9.9056558,1.3210576 C 9.5040498,1.2415513 9.1078361,1.4681219 8.9688353,1.8600116 L 3.7775076,15.03604 Z M 9.5989828,1.8234202 22.001564,5.2474801 c -0.661255,2.0935444 -3.061486,8.3126499 -4.569837,12.3812349 -1.473006,3.372957 -2.032749,4.464955 -4.297783,4.526863 -1.513305,0.04136 -2.808255,-0.84281 -2.412549,-4.233495 L 4.2954874,15.298018 Z" />
  <path
     style="fill:#eb0000;fill-opacity:1;fill-rule:evenodd;stroke:#fffffb;stroke-width:0.83632022px;stroke-linecap:butt;stroke-linejoin:miter;stroke-opacity:1"
     d="M 12.279934,1.1531425 H 9.095258 v 9.7879465 h -4.1915 l 7.376176,5.303348 7.376175,-5.303348 h -4.1915 V 1.1531425 Z"
     id="path11551"
     inkscape:connector-curvature="0"
     sodipodi:nodetypes="ccccccccc" />
</svg>
