<?xml version="1.0" encoding="UTF-8" standalone="no"?>
<!-- Created with Inkscape (http://www.inkscape.org/) -->

<svg xmlns:dc="http://purl.org/dc/elements/1.1/" xmlns:cc="http://creativecommons.org/ns#" xmlns:rdf="http://www.w3.org/1999/02/22-rdf-syntax-ns#"
    xmlns="http://www.w3.org/2000/svg" xmlns:sodipodi="http://sodipodi.sourceforge.net/DTD/sodipodi-0.dtd"
    xmlns:inkscape="http://www.inkscape.org/namespaces/inkscape" width="24" height="24" viewBox="0 0 6.3499998 6.3499998"
    version="1.1" id="svg8" inkscape:version="0.92.5 (2060ec1f9f, 2020-04-08)" sodipodi:docname="ic_action_unpin.svg">
  <defs
     id="defs2" />
  <sodipodi:namedview
     id="base"
     pagecolor="#ffffff"
     bordercolor="#666666"
     borderopacity="1.0"
     inkscape:pageopacity="0.0"
     inkscape:pageshadow="2"
     inkscape:zoom="34.821668"
     inkscape:cx="7.2325913"
     inkscape:cy="7.3741754"
     inkscape:document-units="mm"
     inkscape:current-layer="layer1"
     showgrid="false"
     units="px"
     gridtolerance="1"
     objecttolerance="1"
     guidetolerance="1"
     inkscape:window-width="1856"
     inkscape:window-height="1019"
     inkscape:window-x="64"
     inkscape:window-y="24"
     inkscape:window-maximized="1" />
  <metadata
     id="metadata5">
    <rdf:RDF>
      <cc:Work
         rdf:about="">
        <dc:format>image/svg+xml</dc:format>
        <dc:type
           rdf:resource="http://purl.org/dc/dcmitype/StillImage" />
        <dc:title />
      </cc:Work>
    </rdf:RDF>
  </metadata>
  <g
     inkscape:label="Layer 1"
     inkscape:groupmode="layer"
     id="layer1"
     transform="translate(0,-290.65)">
    <path
       style="fill:#cfcfd0;stroke-width:0.26458332"
       d="m 33.361708,221.0837 c 2.54e-4,-2.76489 0.03946,-3.86004 0.08713,-2.43365 0.04766,1.42639 0.04745,3.68858 -5.29e-4,5.02708 -0.04792,1.33851 -0.08692,0.17147 -0.08666,-2.59343 z"
       id="path1589"
       inkscape:connector-curvature="0" />
    <path
       style="fill:#cfcfd0;stroke-width:0.26458332"
       d="m 30.820562,201.98526 c 0.190995,-0.0764 0.419201,-0.067 0.507119,0.0209 0.08792,0.0879 -0.06835,0.15045 -0.347266,0.13897 -0.308226,-0.0127 -0.370919,-0.0754 -0.159853,-0.15985 z"
       id="path1583"
       inkscape:connector-curvature="0" />
    <path
       style="fill:#cfcfd0;stroke-width:0.26458332"
       d="m 103.34597,187.68006 -0.64143,-0.72761 0.72761,0.64144 c 0.68005,0.59951 0.84894,0.81377 0.64143,0.81377 -0.0474,0 -0.37482,-0.32742 -0.72761,-0.7276 z"
       id="path1581"
       inkscape:connector-curvature="0" />
    <path
       style="fill:#cfcfd0;stroke-width:0.26458332"
       d="m 188.95871,187.34933 c 0.56839,-0.58208 1.09296,-1.05833 1.16572,-1.05833 0.0728,0 -0.33275,0.47625 -0.90114,1.05833 -0.56839,0.58208 -1.09297,1.05833 -1.16573,1.05833 -0.0728,0 0.33276,-0.47625 0.90115,-1.05833 z"
       id="path1579"
       inkscape:connector-curvature="0" />
    <path
       style="fill:#cfcfd0;stroke-width:0.26458332"
       d="m -2.4673271,164.19829 c 0.4936543,-0.50933 0.9570852,-0.92604 1.0298456,-0.92604 0.07276,0 -0.271608,0.41671 -0.7652623,0.92604 -0.4936542,0.50932 -0.9570852,0.92604 -1.0298456,0.92604 -0.07276,0 0.271608,-0.41672 0.7652623,-0.92604 z"
       id="path1577"
       inkscape:connector-curvature="0" />
    <path
       style="fill:#cfcfd0;stroke-width:0.26458332"
       d="m 68.832848,129.0087 c -1.3e-5,-14.55208 0.03199,-20.54404 0.07111,-13.31546 0.03912,7.22857 0.03913,19.13482 2.4e-5,26.45833 -0.03911,7.32351 -0.07112,1.40922 -0.07113,-13.14287 z"
       id="path1575"
       inkscape:connector-curvature="0" />
    <path
       style="fill:#cfcfd0;stroke-width:0.26458332"
       d="m 68.772308,101.22745 c 0.0029,-0.58208 0.05712,-0.78905 0.120406,-0.45993 0.06329,0.32911 0.06088,0.80536 -0.0053,1.05833 -0.06622,0.25297 -0.118004,-0.0163 -0.115067,-0.5984 z"
       id="path1573"
       inkscape:connector-curvature="0" />
    <path
       style="fill:#cfcfd0;stroke-width:0.26458332"
       d="m 1.8626398,91.967036 c 7.937e-4,-1.455208 0.045119,-2.016764 0.098735,-1.247901 0.053618,0.768862 0.053054,1.959487 -0.00132,2.645832 -0.054234,0.686345 -0.0981,0.05728 -0.097412,-1.397931 z"
       id="path1571"
       inkscape:connector-curvature="0" />
    <path
       style="fill:#cfcfd0;stroke-width:0.26458332"
       d="m 31.614312,79.218587 c 0.190995,-0.07643 0.4192,-0.06703 0.507119,0.02089 0.08792,0.08792 -0.06835,0.150453 -0.347266,0.138964 -0.308226,-0.01269 -0.370919,-0.07539 -0.159853,-0.159852 z"
       id="path1569"
       inkscape:connector-curvature="0" />
    <path
       style="fill:#cfcfd0;stroke-width:0.26458332"
       d="m 139.94829,76.034468 c 0.40218,-0.06082 0.99749,-0.05919 1.32291,0.0036 0.32542,0.0628 -0.004,0.11256 -0.73124,0.110574 -0.7276,-0.002 -0.99386,-0.05337 -0.59167,-0.114185 z"
       id="path1567"
       inkscape:connector-curvature="0" />
    <path
       style="fill:#cfcfd0;stroke-width:0.26458332"
       d="m 150.53162,76.034468 c 0.40218,-0.06082 0.99749,-0.05919 1.32291,0.0036 0.32543,0.0628 -0.004,0.11256 -0.73124,0.110574 -0.7276,-0.002 -0.99385,-0.05337 -0.59167,-0.114185 z"
       id="path1537"
       inkscape:connector-curvature="0" />
    <path
       style="fill:none;stroke:#000000;stroke-width:0.26458332;stroke-miterlimit:4;stroke-dasharray:none;stroke-opacity:1"
       d="m 3.4001573,292.42482 c -0.4324675,-0.003 -0.9414373,0.0487 -1.1027751,0.25476 -0.072103,0.19244 0.070348,0.33511 0.2444295,0.37931 0.00131,0.53515 0.00231,1.06992 0.00362,1.60507 -0.4846807,0.10712 -0.697417,0.6538 -0.4738728,1.04593 0.2356826,0.36812 0.7155021,0.43693 1.1172444,0.46353 h 0.4227132 c 0.4017422,-0.0266 0.8815617,-0.0954 1.1172444,-0.46353 0.184028,-0.52571 -0.029554,-0.93227 -0.4743895,-1.04593 0.00132,-0.53515 0.00282,-1.06992 0.00414,-1.60507 0.1740804,-0.0442 0.3165313,-0.18687 0.2444282,-0.37931 -0.161338,-0.20601 -0.6703077,-0.25774 -1.1027752,-0.25476 z"
       id="path1493"
       inkscape:connector-curvature="0"
       sodipodi:nodetypes="ccccccccccccc" />
    <rect
       style="opacity:0.7;fill:none;fill-opacity:0.64018692;fill-rule:nonzero;stroke:#ff0000;stroke-width:0.7383371;stroke-linecap:round;stroke-linejoin:round;stroke-miterlimit:4;stroke-dasharray:none;stroke-dashoffset:0;stroke-opacity:0.97647059"
       id="rect822"
       width="0.55062431"
       height="5.8065829"
       x="213.48694"
       y="206.45013"
       transform="matrix(0.71955251,0.69443803,-0.71955251,0.69443803,0,0)" />
  </g>
</svg>
