<?xml version="1.0" encoding="UTF-8" standalone="no"?>
<!-- Created with Inkscape (http://www.inkscape.org/) -->

<svg xmlns:dc="http://purl.org/dc/elements/1.1/" xmlns:cc="http://creativecommons.org/ns#" xmlns:rdf="http://www.w3.org/1999/02/22-rdf-syntax-ns#"
    xmlns="http://www.w3.org/2000/svg" xmlns:xlink="http://www.w3.org/1999/xlink" xmlns:sodipodi="http://sodipodi.sourceforge.net/DTD/sodipodi-0.dtd"
    xmlns:inkscape="http://www.inkscape.org/namespaces/inkscape" version="1.1" id="svg9022" width="24"
    height="24" viewBox="0 0 24 24" sodipodi:docname="ic_action_export.svg" inkscape:version="0.92.5 (2060ec1f9f, 2020-04-08)">
  <metadata
     id="metadata9028">
    <rdf:RDF>
      <cc:Work
         rdf:about="">
        <dc:format>image/svg+xml</dc:format>
        <dc:type
           rdf:resource="http://purl.org/dc/dcmitype/StillImage" />
        <dc:title />
      </cc:Work>
    </rdf:RDF>
  </metadata>
  <defs
     id="defs9026">
    <linearGradient
       xlink:href="#linearGradient7577"
       id="linearGradient7579"
       x1="39.976044"
       y1="142.50357"
       x2="74.393921"
       y2="58.489746"
       gradientUnits="userSpaceOnUse"
       gradientTransform="matrix(0.17927453,0,0,0.18134227,-0.39454345,-0.79978557)" />
    <linearGradient
       id="linearGradient7577">
      <stop
         style="stop-color:#000000;stop-opacity:1;"
         offset="0"
         id="stop7573" />
      <stop
         style="stop-color:#000000;stop-opacity:0;"
         offset="1"
         id="stop7575" />
    </linearGradient>
  </defs>
  <sodipodi:namedview
     pagecolor="#ffffff"
     bordercolor="#666666"
     borderopacity="1"
     objecttolerance="10"
     gridtolerance="4"
     guidetolerance="10"
     inkscape:pageopacity="0"
     inkscape:pageshadow="2"
     inkscape:window-width="1856"
     inkscape:window-height="1016"
     id="namedview9024"
     showgrid="false"
     inkscape:zoom="21.450095"
     inkscape:cx="21.392423"
     inkscape:cy="2.0339876"
     inkscape:window-x="64"
     inkscape:window-y="27"
     inkscape:window-maximized="1"
     inkscape:current-layer="svg9022"
     inkscape:snap-path-clip="false"
     inkscape:snap-path-mask="false" />
  <path
     inkscape:connector-curvature="0"
     style="fill:url(#linearGradient7579);fill-opacity:1;fill-rule:evenodd;stroke:none;stroke-width:0.18030544px;stroke-linecap:butt;stroke-linejoin:miter;stroke-opacity:1"
     d="m 10.304062,1.7006634 12.402581,3.42406 -4.569837,12.3812346 c -1.473006,3.372957 -2.03181,4.456686 -4.309155,4.523898 -1.501933,0.04433 -2.796883,-0.839845 -2.401177,-4.23053 L 5.0005665,15.175261 Z"
     id="path10972" />
  <path
     inkscape:connector-curvature="0"
     id="path6944-0"
     style="fill:#030104;stroke:none;stroke-width:0.04395208"
     d="m 14.564123,14.977321 c 0.505683,0 0.915205,0.40677 0.915205,0.90828 0,0.501111 -0.409522,0.907837 -0.915205,0.907837 -0.50564,0 -0.915598,-0.406726 -0.915598,-0.907837 0,-0.501466 0.409958,-0.90828 0.915598,-0.90828 z M 7.6808335,13.563187 c -0.143351,0.442481 0.08938,0.918985 0.521427,1.066671 l 3.5577455,1.298394 c 0.08638,0.02936 0.171272,0.04255 0.256908,0.04304 0.347024,0.0019 0.672084,-0.221685 0.787947,-0.575643 0.143742,-0.441281 -0.08855,-0.918496 -0.522341,-1.066093 l -3.5563965,-1.29755 c -0.434617,-0.146887 -0.900244,0.09074 -1.04529,0.531181 z m 7.7474075,-1.086413 c 0.505684,0 0.915597,0.407214 0.915597,0.909613 0,0.501466 -0.409913,0.907792 -0.915597,0.907792 -0.505639,0 -0.915596,-0.406237 -0.915596,-0.907792 0,-0.502399 0.409957,-0.909613 0.915596,-0.909613 z m 0.974383,-2.6354826 c 0.505683,0 0.915205,0.4067686 0.915205,0.9082796 0,0.501111 -0.409522,0.907837 -0.915205,0.907837 -0.50564,0 -0.915597,-0.406726 -0.915597,-0.907837 0,-0.501466 0.409957,-0.9082796 0.915597,-0.9082796 z m 0.834026,-2.336466 c 0.505249,0 0.915205,0.40717 0.915205,0.908725 0,0.501955 -0.409956,0.90868 -0.915205,0.90868 -0.50564,0 -0.915597,-0.406769 -0.915597,-0.90868 4.4e-5,-0.501555 0.409957,-0.908725 0.915597,-0.908725 z M 9.6128155,10.564238 c -0.432834,-0.147908 -0.900201,0.09345 -1.041725,0.537267 -0.142306,0.440348 0.0949,0.918096 0.527734,1.062584 l 3.5651825,1.29302 c 0.0859,0.02971 0.171446,0.04246 0.25817,0.04246 0.346241,0 0.669213,-0.225193 0.783293,-0.578885 0.142263,-0.44288 -0.09407,-0.91974 -0.526907,-1.064272 z m -0.09348,-2.1370806 c -0.14335,0.442481 0.08938,0.918985 0.5214275,1.066671 l 3.530645,1.2161566 c 0.08637,0.02936 0.171272,0.04255 0.256908,0.04304 0.347024,0.0019 0.672084,-0.221685 0.787948,-0.575643 0.143741,-0.4412806 -0.08855,-0.9184956 -0.522341,-1.0660926 l -3.529298,-1.215313 c -0.434617,-0.146887 -0.9002435,0.09074 -1.0452895,0.531181 z m 5.1275275,-0.171321 c 0.07159,0.01999 0.145699,0.0306 0.218896,0.0306 0.362028,0 0.693265,-0.246514 0.794775,-0.620548 0.120647,-0.449276 -0.139871,-0.913388 -0.579185,-1.035801 l -3.57649,-1.127344 c -0.434443,-0.122813 -0.893981,0.141112 -1.013845,0.589944 -0.119908,0.449232 0.138218,0.913389 0.579228,1.036246 z M 1.5385715,14.199345 c -0.66712595,4.318385 2.581998,5.357029 2.581998,5.357029 l 6.8731965,3.18691 c 0.0016,9.07e-4 1.074604,0.522832 2.240759,0.469177 3.453033,0.0226 4.361254,-2.730573 5.63593,-6.145163 2.014258,-5.395775 3.977742,-11.2878826 3.997704,-11.3520656 0.07159,-0.228969 0.04332,-0.475927 -0.07655,-0.681621 -0.120691,-0.206139 -0.31971,-0.350671 -0.549348,-0.397842 L 10.110657,1.4710714 C 9.7090505,1.3915614 9.3128365,1.6181354 9.1738365,2.0100254 L 3.9825085,15.186053 Z m 8.265412,-12.2259116 12.4025815,3.42406 c -0.661255,2.093544 -3.061486,8.3126496 -4.569837,12.3812346 -1.473006,3.372957 -2.032749,4.464955 -4.297783,4.526863 -1.513305,0.04136 -2.808255,-0.84281 -2.412549,-4.233495 L 4.5004885,15.448031 Z" />
  <path
     style="fill:#eb0000;fill-opacity:1;fill-rule:evenodd;stroke:#fffffb;stroke-width:0.83632022px;stroke-linecap:butt;stroke-linejoin:miter;stroke-opacity:1"
     d="M 12.561046,16.186872 H 9.3763689 V 6.3989243 h -4.1915 l 7.3761771,-5.303348 7.376175,5.303348 h -4.1915 v 9.7879477 z"
     id="path11551"
     inkscape:connector-curvature="0"
     sodipodi:nodetypes="ccccccccc" />
</svg>
