<?xml version="1.0" encoding="UTF-8" standalone="no"?>
<!-- Created with Inkscape (http://www.inkscape.org/) -->

<svg xmlns:dc="http://purl.org/dc/elements/1.1/" xmlns:cc="http://creativecommons.org/ns#" xmlns:rdf="http://www.w3.org/1999/02/22-rdf-syntax-ns#"
    xmlns="http://www.w3.org/2000/svg" xmlns:sodipodi="http://sodipodi.sourceforge.net/DTD/sodipodi-0.dtd"
    xmlns:inkscape="http://www.inkscape.org/namespaces/inkscape" width="24" height="24" viewBox="0 0 6.3499998 6.3499998"
    version="1.1" id="svg8" inkscape:version="0.92.5 (2060ec1f9f, 2020-04-08)" sodipodi:docname="ic_action_pin.svg">
  <defs
     id="defs2" />
  <sodipodi:namedview
     id="base"
     pagecolor="#ffffff"
     bordercolor="#666666"
     borderopacity="1.0"
     inkscape:pageopacity="0.0"
     inkscape:pageshadow="2"
     inkscape:zoom="30.059544"
     inkscape:cx="12.413428"
     inkscape:cy="12.466049"
     inkscape:document-units="mm"
     inkscape:current-layer="layer1"
     showgrid="false"
     units="px"
     gridtolerance="1"
     objecttolerance="1"
     guidetolerance="1"
     inkscape:window-width="1856"
     inkscape:window-height="1019"
     inkscape:window-x="64"
     inkscape:window-y="24"
     inkscape:window-maximized="1" />
  <metadata
     id="metadata5">
    <rdf:RDF>
      <cc:Work
         rdf:about="">
        <dc:format>image/svg+xml</dc:format>
        <dc:type
           rdf:resource="http://purl.org/dc/dcmitype/StillImage" />
        <dc:title />
      </cc:Work>
    </rdf:RDF>
  </metadata>
  <g
     inkscape:label="Layer 1"
     inkscape:groupmode="layer"
     id="layer1"
     transform="translate(0,-290.65)">
    <path
       style="fill:#cfcfd0;stroke-width:0.26458332"
       d="m 33.361708,221.0837 c 2.54e-4,-2.76489 0.03946,-3.86004 0.08713,-2.43365 0.04766,1.42639 0.04745,3.68858 -5.29e-4,5.02708 -0.04792,1.33851 -0.08692,0.17147 -0.08666,-2.59343 z"
       id="path1589"
       inkscape:connector-curvature="0" />
    <path
       style="fill:#cfcfd0;stroke-width:0.26458332"
       d="m 30.820562,201.98526 c 0.190995,-0.0764 0.419201,-0.067 0.507119,0.0209 0.08792,0.0879 -0.06835,0.15045 -0.347266,0.13897 -0.308226,-0.0127 -0.370919,-0.0754 -0.159853,-0.15985 z"
       id="path1583"
       inkscape:connector-curvature="0" />
    <path
       style="fill:#cfcfd0;stroke-width:0.26458332"
       d="m 103.34597,187.68006 -0.64143,-0.72761 0.72761,0.64144 c 0.68005,0.59951 0.84894,0.81377 0.64143,0.81377 -0.0474,0 -0.37482,-0.32742 -0.72761,-0.7276 z"
       id="path1581"
       inkscape:connector-curvature="0" />
    <path
       style="fill:#cfcfd0;stroke-width:0.26458332"
       d="m 188.95871,187.34933 c 0.56839,-0.58208 1.09296,-1.05833 1.16572,-1.05833 0.0728,0 -0.33275,0.47625 -0.90114,1.05833 -0.56839,0.58208 -1.09297,1.05833 -1.16573,1.05833 -0.0728,0 0.33276,-0.47625 0.90115,-1.05833 z"
       id="path1579"
       inkscape:connector-curvature="0" />
    <path
       style="fill:#cfcfd0;stroke-width:0.26458332"
       d="m -2.4673271,164.19829 c 0.4936543,-0.50933 0.9570852,-0.92604 1.0298456,-0.92604 0.07276,0 -0.271608,0.41671 -0.7652623,0.92604 -0.4936542,0.50932 -0.9570852,0.92604 -1.0298456,0.92604 -0.07276,0 0.271608,-0.41672 0.7652623,-0.92604 z"
       id="path1577"
       inkscape:connector-curvature="0" />
    <path
       style="fill:#cfcfd0;stroke-width:0.26458332"
       d="m 68.832848,129.0087 c -1.3e-5,-14.55208 0.03199,-20.54404 0.07111,-13.31546 0.03912,7.22857 0.03913,19.13482 2.4e-5,26.45833 -0.03911,7.32351 -0.07112,1.40922 -0.07113,-13.14287 z"
       id="path1575"
       inkscape:connector-curvature="0" />
    <path
       style="fill:#cfcfd0;stroke-width:0.26458332"
       d="m 68.772308,101.22745 c 0.0029,-0.58208 0.05712,-0.78905 0.120406,-0.45993 0.06329,0.32911 0.06088,0.80536 -0.0053,1.05833 -0.06622,0.25297 -0.118004,-0.0163 -0.115067,-0.5984 z"
       id="path1573"
       inkscape:connector-curvature="0" />
    <path
       style="fill:#cfcfd0;stroke-width:0.26458332"
       d="m 1.8626398,91.967036 c 7.937e-4,-1.455208 0.045119,-2.016764 0.098735,-1.247901 0.053618,0.768862 0.053054,1.959487 -0.00132,2.645832 -0.054234,0.686345 -0.0981,0.05728 -0.097412,-1.397931 z"
       id="path1571"
       inkscape:connector-curvature="0" />
    <path
       style="fill:#cfcfd0;stroke-width:0.26458332"
       d="m 31.614312,79.218587 c 0.190995,-0.07643 0.4192,-0.06703 0.507119,0.02089 0.08792,0.08792 -0.06835,0.150453 -0.347266,0.138964 -0.308226,-0.01269 -0.370919,-0.07539 -0.159853,-0.159852 z"
       id="path1569"
       inkscape:connector-curvature="0" />
    <path
       style="fill:#cfcfd0;stroke-width:0.26458332"
       d="m 139.94829,76.034468 c 0.40218,-0.06082 0.99749,-0.05919 1.32291,0.0036 0.32542,0.0628 -0.004,0.11256 -0.73124,0.110574 -0.7276,-0.002 -0.99386,-0.05337 -0.59167,-0.114185 z"
       id="path1567"
       inkscape:connector-curvature="0" />
    <path
       style="fill:#cfcfd0;stroke-width:0.26458332"
       d="m 150.53162,76.034468 c 0.40218,-0.06082 0.99749,-0.05919 1.32291,0.0036 0.32543,0.0628 -0.004,0.11256 -0.73124,0.110574 -0.7276,-0.002 -0.99385,-0.05337 -0.59167,-0.114185 z"
       id="path1537"
       inkscape:connector-curvature="0" />
    <path
       style="fill:none;stroke:#000000;stroke-width:0.99999994;stroke-miterlimit:4;stroke-dasharray:none;stroke-opacity:1"
       d="M 11.796875,1.6542969 C 10.162352,1.6430339 8.2386869,1.838567 7.6289062,2.6171875 7.3563902,3.3445198 7.894787,3.8837261 8.5527344,4.0507812 c 0.00495,2.0226142 0.00872,4.0437921 0.013672,6.0664068 -1.8318641,0.404868 -2.6359071,2.47109 -1.7910156,3.953124 0.8907689,1.39132 2.7042602,1.651418 4.2226562,1.751954 -2.1e-5,1.291729 1.47e-4,2.58327 0,3.875 l 0.798828,2.232422 0.798828,-2.232422 c -1.47e-4,-1.29173 2.1e-5,-2.583271 0,-3.875 1.518396,-0.100536 3.331887,-0.360634 4.222656,-1.751954 0.695539,-1.986919 -0.111699,-3.523511 -1.792968,-3.953124 0.005,-2.0226147 0.01067,-4.0437926 0.01563,-6.0664068 C 15.698963,3.8837261 16.23736,3.3445198 15.964844,2.6171875 15.355063,1.838567 13.431398,1.6430339 11.796875,1.6542969 Z"
       transform="matrix(0.26458333,0,0,0.26458333,0,290.65)"
       id="path1493"
       inkscape:connector-curvature="0"
       sodipodi:nodetypes="ccccccccccccccc" />
  </g>
</svg>
