<?xml version="1.0" encoding="UTF-8" standalone="no"?>
<svg xmlns:dc="http://purl.org/dc/elements/1.1/" xmlns:cc="http://creativecommons.org/ns#" xmlns:rdf="http://www.w3.org/1999/02/22-rdf-syntax-ns#"
    xmlns="http://www.w3.org/2000/svg" xmlns:xlink="http://www.w3.org/1999/xlink" xmlns:sodipodi="http://sodipodi.sourceforge.net/DTD/sodipodi-0.dtd"
    xmlns:inkscape="http://www.inkscape.org/namespaces/inkscape" version="1.1" id="svg9022" width="144"
    height="144" viewBox="0 0 144 144" sodipodi:docname="ic_launcher.svg" inkscape:version="0.92.5 (2060ec1f9f, 2020-04-08)">
  <metadata
     id="metadata22">
    <rdf:RDF>
      <cc:Work
         rdf:about="">
        <dc:format>image/svg+xml</dc:format>
        <dc:type
           rdf:resource="http://purl.org/dc/dcmitype/StillImage" />
        <dc:title></dc:title>
      </cc:Work>
    </rdf:RDF>
  </metadata>
  <sodipodi:namedview
     pagecolor="#ffffff"
     bordercolor="#666666"
     borderopacity="1"
     objecttolerance="21"
     gridtolerance="10"
     guidetolerance="10"
     inkscape:pageopacity="0"
     inkscape:pageshadow="2"
     inkscape:window-width="1856"
     inkscape:window-height="1019"
     id="namedview20"
     showgrid="false"
     inkscape:zoom="2.768826"
     inkscape:cx="72"
     inkscape:cy="35.883609"
     inkscape:window-x="64"
     inkscape:window-y="24"
     inkscape:window-maximized="1"
     inkscape:current-layer="svg9022" />
  <defs
     id="defs9026">
    <linearGradient
       id="linearGradient7577">
      <stop
         style="stop-color:#000000;stop-opacity:1;"
         offset="0"
         id="stop7573" />
      <stop
         style="stop-color:#000000;stop-opacity:0;"
         offset="1"
         id="stop7575" />
    </linearGradient>
    <linearGradient
       xlink:href="#linearGradient7577"
       id="linearGradient7579"
       x1="39.976044"
       y1="142.50357"
       x2="74.393921"
       y2="58.489746"
       gradientUnits="userSpaceOnUse"
       gradientTransform="translate(-1.0688741,1.0688786)" />
  </defs>
  <path
      style="fill:url(#linearGradient7579);fill-opacity:1;fill-rule:evenodd;stroke:none;stroke-width:1px;stroke-linecap:butt;stroke-linejoin:miter;stroke-opacity:1"
      d="M 58.608342,14.857442 127.7904,33.739196 102.29968,102.0147 c -8.216479,18.59995 -11.333511,24.5761 -24.036625,24.94674 -8.377839,0.24444 -15.601117,-4.63127 -13.393853,-23.32898 L 29.025251,89.162223 Z" />
  <path
     id="path6944-0"
     style="fill:#030104;stroke:none;stroke-width:0.24376456"
     d="m 85.160577,86.566525 c 2.82072,0 5.10505,2.243105 5.10505,5.008653 0,2.763344 -2.28433,5.006204 -5.10505,5.006204 -2.82048,0 -5.107237,-2.24286 -5.107237,-5.006204 0,-2.765303 2.286757,-5.008653 5.107237,-5.008653 z M 46.765332,78.768377 c -0.799613,2.440031 0.498544,5.067682 2.908541,5.882087 l 19.845234,7.159907 c 0.481805,0.161901 0.955362,0.234647 1.433043,0.237341 1.935712,0.01029 3.748911,-1.222465 4.395199,-3.174343 0.801796,-2.433418 -0.493935,-5.064988 -2.913636,-5.878903 L 52.596,75.839212 c -2.42431,-0.809996 -5.021595,0.5004 -5.830668,2.929165 z m 43.21533,-5.990954 c 2.82072,0 5.107233,2.245554 5.107233,5.016001 0,2.765303 -2.286513,5.005958 -5.107233,5.005958 -2.820477,0 -5.107233,-2.240165 -5.107233,-5.005958 0,-2.770447 2.286756,-5.016001 5.107233,-5.016001 z m 5.435142,-14.533198 c 2.82072,0 5.105046,2.243104 5.105046,5.008653 0,2.763344 -2.284326,5.006203 -5.105046,5.006203 -2.820477,0 -5.107233,-2.242859 -5.107233,-5.006203 0,-2.765304 2.286756,-5.008653 5.107233,-5.008653 z m 4.652226,-12.884284 c 2.8183,0 5.10505,2.245309 5.10505,5.011102 0,2.767998 -2.28675,5.010857 -5.10505,5.010857 -2.820475,0 -5.107231,-2.243104 -5.107231,-5.010857 2.43e-4,-2.765793 2.286756,-5.011102 5.107231,-5.011102 z m -42.526031,16.87093 c -2.414363,-0.815629 -5.021352,0.515341 -5.810775,2.962721 -0.79379,2.428274 0.529355,5.062783 2.943719,5.859553 l 19.886718,7.13027 c 0.479137,0.163861 0.956333,0.234157 1.440079,0.234157 1.931345,0 3.732899,-1.241815 4.369241,-3.192224 0.793547,-2.442235 -0.524746,-5.071845 -2.939109,-5.86886 z M 57.020563,50.446076 c -0.799612,2.440031 0.498545,5.067682 2.908541,5.882087 l 19.694072,6.70642 c 0.481805,0.161901 0.955362,0.234646 1.433043,0.237341 1.935712,0.01029 3.748911,-1.222465 4.3952,-3.174343 0.801795,-2.433419 -0.493936,-5.064988 -2.913636,-5.878903 L 62.851231,47.516912 c -2.42431,-0.809997 -5.021594,0.5004 -5.830668,2.929164 z m 28.60154,-0.944737 c 0.399321,0.11022 0.812713,0.16876 1.22101,0.16876 2.019409,0 3.867057,-1.359383 4.433288,-3.421972 0.672974,-2.477506 -0.780205,-5.03682 -3.230716,-5.711858 L 68.09589,34.319603 c -2.423339,-0.677242 -4.98666,0.778155 -5.655268,3.253211 -0.66885,2.477262 0.770986,5.036821 3.230958,5.714308 z M 12.503568,82.276429 C 8.7823141,106.08988 26.906052,111.81741 26.906052,111.81741 l 38.338939,17.57401 c 0.0092,0.005 5.994182,2.88312 12.499038,2.58724 19.261148,0.12462 24.327241,-15.05756 31.437431,-33.887095 11.2356,-29.754644 22.18799,-62.246289 22.29934,-62.600218 0.39932,-1.262634 0.24163,-2.624467 -0.42698,-3.758756 -0.67322,-1.136738 -1.78336,-1.933752 -3.06429,-2.193872 L 60.318981,12.087197 c -2.240176,-0.438432 -4.45027,0.810976 -5.225622,2.972027 L 26.13594,87.717567 Z M 58.608342,14.857442 127.7904,33.739196 c -3.6885,11.544712 -17.07708,45.839561 -25.49072,68.275504 -8.21648,18.59995 -11.338746,24.6217 -23.973191,24.96309 -8.441273,0.22809 -15.664551,-4.64762 -13.457287,-23.34533 L 29.025251,89.162223 Z" />
</svg>
