<?xml version="1.0" encoding="UTF-8" standalone="no"?>
<svg
   xmlns="http://www.w3.org/2000/svg"
   version="1.1"
   width="144"
   height="144"
   viewBox="0 0 128 128">
  <defs
     id="defs5708" />
  <g
     id="g9979"
     transform="matrix(1.198902,0,0,1.198902,-13.274445,-13.077384)">
    <path
       id="path9895"
       d="m 64.270653,19.747904 -8.027344,0.160156 -2.728516,12.361328 -5.617187,3.048828 -5.449219,3.339844 -12.068359,-3.816406 -4.152344,6.869141 -3.875,7.03125 9.341797,8.544921 -0.169922,6.44336 0.169922,6.443359 -9.341797,8.544922 3.875,7.03125 4.152344,6.869141 12.068359,-3.816407 5.449219,3.339844 5.617187,3.048828 2.728516,12.361317 8.027344,0.16016 8.02539,-0.16016 2.728516,-12.361317 5.617188,-3.103515 5.447265,-3.394532 12.072266,3.816407 4.150392,-6.871094 3.87305,-7.03125 -9.337895,-8.542969 0.166015,-6.388672 -0.167969,-6.388672 9.341799,-8.544921 -3.875,-7.03125 -4.152345,-6.869141 -12.06836,3.816406 -5.449218,-3.339844 -5.617188,-3.048828 -2.728516,-12.361328 z m 0,18.351562 a 25.630989,25.630989 0 0 1 25.630859,25.63086 25.630989,25.630989 0 0 1 -25.630859,25.630859 25.630989,25.630989 0 0 1 -25.63086,-25.630859 25.630989,25.630989 0 0 1 25.63086,-25.63086 z"
       style="fill:#000004;fill-opacity:1;fill-rule:evenodd;stroke:none;stroke-width:1px;stroke-linecap:butt;stroke-linejoin:miter;stroke-opacity:1" />
    <path
       id="path9959"
       d="m 64.269531,42.230469 a 21.5,21.5 0 0 0 -21.5,21.5 21.5,21.5 0 0 0 21.5,21.5 21.5,21.5 0 0 0 21.5,-21.5 21.5,21.5 0 0 0 -21.5,-21.5 z m 0,6.839843 A 14.659091,14.659091 0 0 1 78.929688,63.730469 14.659091,14.659091 0 0 1 64.269531,78.388672 14.659091,14.659091 0 0 1 49.611328,63.730469 14.659091,14.659091 0 0 1 64.269531,49.070312 Z"
       style="opacity:1;fill:#000004;fill-opacity:1;fill-rule:nonzero;stroke:none;stroke-width:1;stroke-linecap:round;stroke-miterlimit:4;stroke-dasharray:none;stroke-dashoffset:0;stroke-opacity:1"
        />
  </g>
</svg>
